<svg version="1" xmlns="http://www.w3.org/2000/svg" width="3333.333" height="3333.333" viewBox="0 0 2500.000000 2500.000000"><path d="M1196.7 4.6c-.1.1-8.7.5-19.2.9-10.4.3-20.6.8-22.5.9-1.9.2-8.7.7-15 1.1-6.3.3-12.8.8-14.5 1-1.6.2-6.4.7-10.5 1-4.1.3-9.2.8-11.2 1.1-2.1.2-5.5.6-7.5.8-2.1.3-6.5.8-9.8 1.2-3.3.3-6.8.8-7.7.9-.9.2-4.8.7-8.5 1-3.7.4-7 .9-7.3 1-.3.2-3 .6-6 1-6.8.8-37 5.4-39 6-.8.2-3.1.6-5.1.9-3.2.5-40.8 7.9-46.4 9.2-1.1.2-3.3.7-5 1-2.3.4-43.7 10.7-51.5 12.8-.8.2-5.1 1.4-9.5 2.5-9.2 2.5-9.5 2.6-11.5 3.4-.8.3-6.5 2-12.5 3.6-24.3 6.8-90.5 30.2-109.2 38.7-1.7.8-3.4 1.4-3.7 1.4-.3 0-2.5.8-4.9 1.9-2.3 1-8.7 3.8-14.2 6.1-5.5 2.4-12.9 5.6-16.5 7.2-3.6 1.6-8.1 3.7-10 4.5-6.8 3-55.6 27.3-67.5 33.6-20.1 10.5-46.6 25.9-67.5 39-14.8 9.3-31.4 20.1-32 20.7-.3.3-2.3 1.7-4.5 3s-4.2 2.6-4.5 2.9c-.3.4-4.5 3.3-9.5 6.6-7.8 5.1-15.7 10.7-19 13.3-.5.4-2.6 1.9-4.5 3.2-1.9 1.3-3.9 2.8-4.5 3.3-.5.4-4.4 3.2-8.5 6.3-4.1 3-8.2 6-9 6.7-.8.7-6.4 5-12.5 9.7-6 4.6-11.5 8.9-12.1 9.5-.6.5-2.8 2.3-4.9 4-6.6 5.2-36.1 29.9-38.6 32.4-.8.9-4.6 4.3-8.4 7.6-3.7 3.3-8 7.1-9.4 8.5-1.5 1.4-5.3 4.9-8.6 7.9-19.1 17.3-60.7 59.7-77.6 79.1-3.1 3.6-6.7 7.6-8 9.1-1.3 1.4-4.9 5.4-7.9 9-3 3.5-5.7 6.6-6 6.9-1.6 1.5-12.6 14.8-20.5 24.5-3.1 3.8-6.2 7.7-6.8 8.5-.7.9-3.3 4.2-5.7 7.5-2.5 3.3-4.7 6.2-5 6.5-1.4 1.3-10.8 13.9-20.9 28-6 8.5-11.4 16-11.9 16.6-.5.5-1.4 2-2.1 3.1-.6 1.2-1.7 2.8-2.3 3.5-.7.8-1.7 2.1-2.3 2.9-.5.9-4.6 6.9-8.9 13.5-15.8 23.8-19.6 29.5-19.6 29.9 0 .2-3.1 5.3-7 11.4-3.8 6-7 11.2-7 11.6 0 .3-1.2 2.4-2.7 4.8-1.4 2.3-3.6 5.8-4.9 7.7-1.2 1.9-3.6 6.2-5.4 9.5-1.8 3.3-3.9 7.1-4.7 8.5-12 21.3-39.1 75.1-48.2 96-3.5 8-7.2 16.3-8.2 18.5-2.8 6-14 33.7-14.4 35.7-.2.9-.8 2.5-1.3 3.5-3.2 6-29.3 80.5-30.6 87.3-.1.8-1.3 4.8-2.5 8.9-1.3 4.1-2.4 8.1-2.6 9-.2.9-2.2 8-4.4 15.9-2.3 7.8-4.6 16.3-5.2 19-.6 2.6-1.2 5.4-1.5 6.2-1.1 4.3-4.6 18.8-5 20.9-.3 1.2-1.1 5.1-1.9 8.5-.8 3.3-1.6 7.2-1.9 8.6-.3 1.4-1.4 7-2.6 12.5-1.1 5.5-2.3 11.6-2.6 13.5-.3 1.9-.9 5.1-1.4 7-.5 1.9-1.2 5.5-1.5 8-.4 2.5-1 6.3-1.5 8.5s-1.1 6.2-1.5 9c-.3 2.7-.8 5.7-1 6.5-.4 1.6-1.3 7.3-2.1 13.5-.2 2.2-.7 5.1-.9 6.5-.2 1.4-.6 4.4-.9 6.7-.3 2.4-.9 6.2-1.2 8.5-.3 2.4-.7 5.4-.9 6.8-.2 1.4-.6 5-1 8-.3 3-.8 7.1-1 9-1 7.6-1.4 11.8-2.1 19.5-.4 4.4-.8 9.3-1 11-.2 1.6-.6 7-.9 12-.4 4.9-.8 11-1 13.5-2 24.3-2.7 105.7-1.2 135.5 1.3 25.6 2.2 39.2 3.2 47 .2 1.6.7 7 1 12 .4 4.9.8 10.3 1 12 .2 1.6.7 6.1 1 9.8.4 3.8.8 7.6 1 8.5.2 1.5 1.8 13 2 15.7.4 3.7 2.2 16.1 3.5 23.5.5 3 1.2 7.5 1.5 10 .8 6.3 8.4 47.9 10.4 57 .6 2.5 2.2 9.9 3.6 16.5 4.6 21.2 18.4 73.6 22.4 85.5.5 1.4 1.9 5.9 3.1 10 1.2 4.1 4.4 14.1 7.1 22.3 2.8 8.1 5.2 15.5 5.4 16.5.4 1.6 2.8 8.2 10.6 28.7 1.7 4.4 3.4 8.9 3.9 10 .5 1.1 2.9 7.2 5.3 13.5 4.6 11.9 14.4 35 19.3 45.5 10.6 23.2 15.3 32.9 26.6 55.2 7 13.8 16.6 32 21.4 40.5 4.7 8.4 9.5 16.9 10.6 18.8 4.7 8.3 22.3 37.5 22.8 38 .4.3 2 2.7 3.6 5.5 1.5 2.7 3.6 5.9 4.6 6.9 1 1.1 1.8 2.5 1.8 3.2 0 .7.4 1.4.8 1.6.4.1 1.9 2.1 3.2 4.3 2.7 4.4 21.7 31.9 29.6 42.8 2.7 3.8 5.6 7.9 6.4 9.1 2.2 3.2 7.3 9.9 8.8 11.4.6.8 1.6 2.1 2.1 3.1.8 1.3 23.3 30 28.4 36.1.7.8 3.6 4.4 6.6 7.9 2.9 3.5 5.8 7 6.4 7.7.7.7 1.7 1.9 2.2 2.6 1.1 1.4 13.7 16 14.5 16.8.5.5 15.5 17.5 17.2 19.5.5.6 3.8-2.2 8.5-7 8.6-9.1 38.8-40.7 47.8-50.1 3.3-3.4 7.9-8.3 10.3-10.9l4.4-4.7-2.4-2.7c-2.6-2.9-10.6-11.9-14.7-16.6-1.5-1.7-4.9-5.7-7.6-9-2.8-3.2-5.7-6.6-6.5-7.5-.8-.8-3.3-3.8-5.5-6.5-2.2-2.8-4.3-5.2-4.6-5.5-1.1-1-15.6-19.6-24.9-32-5.2-6.9-9.8-13-10.2-13.5-.5-.6-1.7-2.1-2.8-3.4-1.1-1.3-2-2.8-2-3.2 0-.4-.6-1.4-1.3-2.1-.7-.7-4.4-5.8-8.2-11.3-3.8-5.5-9.3-13.4-12.2-17.5-3-4.1-5.9-8.6-6.6-10-.6-1.4-1.6-3-2-3.5-4.8-5.9-31.8-50.7-44.2-73.5-15.2-27.8-35.3-68.9-45.5-93-5-11.8-9.6-22.6-10.2-24-.6-1.4-1.4-3.4-1.9-4.5-1.4-3.4-9.6-24.8-10.7-28-.6-1.7-2.7-7.5-4.7-13-7-19-17-50.1-22.9-71.2-2.5-8.7-9.4-35.1-10.1-38.3-.2-.8-1.7-7.5-3.4-14.9-1.7-7.3-3.3-14.3-3.5-15.5-1.3-6.2-7.5-37.5-7.9-40.1-.3-1.7-1.6-9.8-3-18-2.2-13-3.4-20.6-5.2-34-1.3-10.1-3.3-27.8-4-36-.3-3.9-.8-9-1-11.5-4.4-46.8-5.4-130.3-2-171.5.2-2.8.7-8.8 1.1-13.5 1.1-14.5 1.2-15.3 1.8-22.5.4-3.9.9-8.4 1.1-10 .2-1.7.6-5.9 1-9.5.3-3.6.8-7.6 1-9 .3-1.4.7-4.3.9-6.5.6-5 1.6-12.2 2.1-15.5 1.9-13.5 3.1-21.3 4-26 .2-1.4.7-4.5 1-7 .3-2.5.8-5.2 1.1-6.1.3-1 .6-3 .9-4.5.3-2.4 1.7-9.5 6.1-31.4 1.4-7.1 4.7-21.4 6.5-28.5 1.2-4.4 2.2-8.7 2.4-9.6.2-.8 1.5-6.1 3-11.7s2.8-10.7 2.9-11.4c.3-1.6 3.8-13.5 7.2-24.7 1.5-4.6 2.8-9.1 2.9-10 .2-.9.4-1.6.5-1.6.1 0 .3-.7.5-1.5 2.4-11 27.6-80.3 35.1-96.8 1.3-2.9 2.4-5.5 2.4-5.8 0-.5 1.5-4.1 5.5-12.9 3.2-7.1 6.8-15.3 8.3-18.5.9-1.9 1.6-3.7 1.7-4 1.9-6.5 32.1-65 43.2-83.8 2.4-4.1 4.3-7.6 4.3-7.9 0-.3.8-1.7 1.9-3.1 1-1.5 2.9-4.7 4.3-7.2s4.4-7.4 6.6-11c2.3-3.6 5.6-9 7.4-12 2.5-4.2 16.8-26.2 26.8-41 .5-.8 4.5-6.5 8.8-12.5 4.2-6.1 8.9-12.6 10.2-14.5 1.4-1.9 2.7-3.7 3-4 .3-.3 2.5-3.2 5-6.5 2.4-3.3 4.8-6.5 5.2-7 .5-.6 4.5-5.7 9-11.5 4.4-5.8 8.4-10.7 8.9-10.8.5-.2.9-.8.9-1.3 0-.6 1-2 2.3-3.3 1.2-1.3 3.1-3.6 4.1-5 1.1-1.5 2.8-3.7 3.9-4.9 1-1.2 3.6-4.2 5.7-6.7 10.3-12.1 18.5-21.6 30-34.4 15.7-17.5 75.6-76.2 86.6-84.9 1.6-1.2 4.3-3.6 6.1-5.3 3.5-3.4 7.8-7.1 22.8-19.6 5.5-4.5 10.2-8.6 10.3-9 .2-.5 1-.8 1.7-.8s1.5-.3 1.7-.8c.6-1.4 19.7-16.2 42.3-32.7 4.4-3.2 10.3-7.6 13.2-9.7 2.9-2.1 5.6-3.8 6.2-3.8.5 0 1.1-.4 1.3-.8.2-.5 5-4 10.8-7.8 5.8-3.8 10.7-7.1 11-7.4.3-.3 4.3-3 9-5.9 4.7-3 10.1-6.4 12-7.7 7-4.5 43.6-26.2 49-29 3-1.6 5.7-3.1 6-3.4.6-.6 3.3-2 32.5-17 19.1-9.9 43.3-21.3 60.5-28.7 1.9-.8 4.7-2.1 6.3-2.9 1.5-.9 2.7-1.2 2.7-.8 0 .3.6.2 1.3-.4.6-.5 5.3-2.7 10.2-4.7 5-2 10.1-4.2 11.5-4.8 1.4-.5 3-1.1 3.5-1.3.6-.2 9.8-3.6 20.6-7.7 17.6-6.7 49.6-17.6 66.9-22.8 3.6-1.1 8.5-2.6 11-3.4 4.1-1.3 37.2-10.3 44.5-12.1 1.7-.4 3.5-.8 4-1 .6-.1 2.1-.5 3.5-.8 1.4-.3 4.3-1 6.5-1.5s5.1-1.2 6.5-1.5c1.4-.3 5.7-1.3 9.5-2.2 10.2-2.3 11.1-2.5 29-5.9 12.2-2.3 14.6-2.7 22-3.9 18.2-2.9 28.3-4.5 33.5-5.1 1.9-.2 5.3-.7 7.5-1 6.5-1 8.7-1.3 14-1.9 2.8-.3 8.8-1 13.5-1.6 4.7-.5 11.9-1.2 16-1.5 4.1-.3 9.1-.7 11-1 1.9-.2 7.8-.7 13-1 5.2-.4 11.1-.8 13-1 23.5-2.4 99.4-2.4 137.5 0 20.7 1.3 26.3 1.7 28.5 2 1.4.2 5.9.7 10 1 4.1.4 8.6.8 10 1 1.4.1 5.7.6 9.5 1 3.9.4 7.8.9 8.7 1.1.9.1 4.8.6 8.5.9 3.7.4 7.5.9 8.5 1 .9.2 3.8.6 6.5 1 5.1.7 44 7.1 48.3 8 1.4.3 3.6.7 5 1 1.4.3 6.3 1.2 11 2.1 4.7.9 12.2 2.4 16.7 3.5 4.4 1 9.4 2.1 11 2.4 6.8 1.1 43.5 10.8 65.8 17.3 31.2 9.1 82.5 26.6 97 33.1 1.1.5 5.6 2.3 10 4.1 4.4 1.7 9.4 3.7 11 4.5 1.7.7 6.4 2.7 10.5 4.5 4.1 1.8 10.2 4.5 13.5 6 3.3 1.5 8.9 4 12.5 5.5 21.6 9.6 76.7 38.5 99.4 52.3 3.7 2.3 7.2 4.2 7.7 4.2s.9.3.9.8c0 .4 1.2 1.3 2.8 2 2.3 1 29.3 18.3 52.2 33.5l7.4 4.9 12-6.3c6.7-3.4 18.2-9.3 25.6-13.2 7.4-3.8 18.9-9.8 25.5-13.2 6.6-3.4 17.5-9.1 24.3-12.5 6.7-3.5 12.2-6.6 12.2-7 0-.3-2.8-2.6-6.2-5-7-4.9-8.1-5.7-10.9-8.3-1-.9-2.1-1.7-2.4-1.7-.7 0-6.3-3.9-8.2-5.7-.7-.6-2.9-2.1-5-3.4-2.1-1.3-4-2.6-4.3-3-1-1.4-59.3-40-65.2-43.2-1.3-.7-9.9-5.8-19.3-11.3-9.3-5.6-19.9-11.7-23.5-13.7-20.6-11.2-27-14.5-46.7-24.5-26.3-13.2-50.9-24.6-78.8-36.2-5.5-2.3-12.7-5.2-16-6.5-3.3-1.2-7.3-2.9-9-3.6-1.6-.7-3.2-1.3-3.5-1.3-.7-.1-14.8-5.6-17.5-6.7-5.8-2.6-51.9-18.1-64-21.6-2.7-.8-5.4-1.6-6-1.7-.5-.2-1.2-.4-1.5-.4-.3 0-1.8-.6-3.5-1.2-1.6-.7-3.7-1.3-4.6-1.5-.9-.2-4.9-1.3-9-2.4-4.1-1.2-9-2.6-10.9-3.1-1.9-.5-6.6-1.8-10.5-2.9-12.8-3.6-43.8-10.9-59.5-14.1-8.5-1.7-18.4-3.8-22-4.5-3.6-.8-8.1-1.7-10-1.9-1.9-.3-4.7-.8-6.2-1.1-1.6-.3-4-.7-5.5-1-1.6-.3-5.3-.9-8.3-1.5-5.4-.9-9.3-1.6-14.7-2.4-3.7-.6-16.8-2.4-21.8-3-2.2-.3-9.6-1.2-16.5-2.1-15.1-1.9-18.9-2.3-26-3-3-.3-6.8-.7-8.5-.9-3.9-.5-21.8-1.8-41-3-5.5-.4-13.8-.9-18.5-1.2-8-.6-87.8-1.3-88.3-.8z"/><path d="M1207.9 212.4c-.2.2-7.1.6-15.4 1-15.3.7-20.6 1.1-33 2.1-19.6 1.6-28 2.4-31 3-1.1.2-5 .7-8.7 1-3.7.3-7.7.8-9 1-1.3.2-4.1.6-6.3 1-2.2.3-5.3.7-7 1-1.6.3-4.6.7-6.5.9-4.4.6-33.3 5.5-41.2 7-4.4.8-22.4 4.5-29.8 6.1-5.8 1.2-22.5 5.2-37.5 8.9-.5.1-3 .8-5.5 1.5s-6.7 1.9-9.5 2.7c-17.9 4.9-56.3 16.9-62 19.4-1.1.5-6 2.2-11 3.9-42.1 14-115.7 47.9-161.4 74.3-11.7 6.7-22.8 13.2-24.5 14.3-1.8 1.1-6.4 3.9-10.4 6.3-18.4 11-71.4 47.7-85.8 59.5-1 .9-7.7 6.2-14.8 11.8-7.1 5.6-13.8 10.9-15 11.9-6.1 5.2-19 16.3-20.1 17.3-.7.7-4.5 4.1-8.6 7.7-16.1 14.2-50 47.4-66.9 65.5-39.5 42.4-76 88.8-107.8 137-17.3 26.3-27.5 43.3-45.7 76-11 19.8-26.2 51-39 80-.7 1.6-2.2 5-3.3 7.5-10.2 22.8-28 71.6-37.2 102-1.7 5.8-4 13.2-5 16.5-2.7 8.5-12.5 46.3-13.6 52.5-.3 1.4-.9 4.1-1.4 6-.5 1.9-1.2 5-1.5 6.7-.3 1.8-1.2 6.3-2.1 10-1.4 5.9-4.9 23.9-5.9 29.8-1.8 11.4-5.6 35.6-5.9 38-.3 1.6-.7 5.2-1.1 8-.3 2.7-.8 6.3-1 8-.2 1.6-.7 5.5-1 8.5-.3 3-.8 6.6-1 8-.2 1.4-.6 5.9-1 10-.3 4.1-.8 9.5-1 12-.5 4.7-.9 9.6-2.2 27.5-1.6 22.6-.8 114.4 1.2 135.5.2 1.9.6 7.3 1 12 .6 8.3 1 13 2 22 .3 2.5.8 6.7 1 9.5 1.3 11.3 3.1 25.1 5.5 41.5 1.4 10 5.8 35.4 7.1 41 .5 2.5 1.1 5.4 1.3 6.5 9.6 50.9 30.4 121 52 175.7 15.9 40.1 41.9 94.5 61 127.8 1.8 3 3.5 6.2 3.9 7 2.4 5.5 41.7 67.3 45.9 72.5.5.5 5.7 7.8 11.6 16 15 21.1 41.3 55 48.8 63 1.1 1.1 2.8 3.2 3.9 4.6 4.3 5.5 17 18.9 17.9 18.9.6 0 2-1.1 3.1-2.4 1.1-1.3 9.3-9.9 18.1-19.2 8.9-9.3 17.6-18.5 19.4-20.4 1.8-1.9 10-10.7 18.4-19.4 8.3-8.8 16.7-17.6 18.6-19.6 1.9-2.1 7.1-7.5 11.5-12.1 6.7-7.1 22.1-23.3 43.4-45.8 2.4-2.5 8-8.4 12.5-13.1 4.4-4.7 16-16.9 25.6-27 9.6-10.2 21.6-22.7 26.6-28 4.9-5.2 12.4-13.1 16.6-17.5 4.2-4.4 9.3-9.8 11.3-12 2.1-2.2 11.2-11.8 20.3-21.3 9.1-9.5 17.3-18.1 18.1-19.1.9-1 8.6-9.2 17.2-18.2 8.7-9 17.6-18.4 19.9-20.9 2.3-2.5 10.8-11.4 18.9-19.9 14-14.7 16.7-17.9 15.9-18.6-.3-.3-6.2-4.8-36.3-27.6-9.3-7.1-28.2-21.4-42-31.9-13.7-10.5-32-24.3-40.5-30.7-8.5-6.5-15.7-12-16-12.3-.3-.3-3-2.3-6-4.5s-5.7-4.2-6-4.5c-.3-.3-2.1-1.7-4-3s-3.7-2.7-4-3c-.3-.4-7-5.5-15-11.5s-14.9-11.3-15.5-11.7c-.5-.4-2.3-1.8-4-3.1-1.6-1.3-12.7-9.7-24.5-18.6-11.8-8.9-22.2-16.7-23-17.4-.9-.7-7.8-5.9-15.5-11.7-7.7-5.7-14.2-10.7-14.5-11-.3-.3-13.8-10.5-30-22.7-16.2-12.3-30.8-23.3-32.3-24.5l-2.8-2.3 3.3-1.6c1.8-.9 6-3 9.3-4.7 3.3-1.6 18.6-9.4 34-17.2 15.4-7.8 41.3-21 57.5-29.2 68.9-35.1 92.7-47.2 153.5-78.3 12.1-6.2 34.2-17.4 49-25 14.9-7.6 36.5-18.6 48-24.5 11.6-5.9 33.6-17.1 49-25 15.4-7.8 28.3-14.6 28.8-14.9.4-.4-1.6-2.3-4.5-4.1-2.9-1.9-5.5-3.7-5.8-4-.3-.3-4.1-3.1-8.5-6.1-20-13.7-77.1-53.4-77.5-53.9-.3-.3-1.2-1-2.2-1.5-1.8-1.1-3.4-2.2-59.8-41.4-22.3-15.4-41.4-28.7-42.5-29.5-1.1-.8-9.4-6.6-18.4-12.8-9-6.3-16.3-11.8-16.1-12.3.2-.9 24.8-14 47.5-25.4 4.4-2.2 17.7-9 29.5-15.1 33.5-17.3 61.4-31.7 75-38.8 36-18.6 52.7-27.2 93-47.9 9.1-4.7 22.4-11.6 29.5-15.3 7.2-3.7 20.4-10.6 29.5-15.3 9.1-4.6 23-11.8 31-15.9 8-4.2 21.5-11.1 30-15.5s24.1-12.4 34.5-17.8c10.5-5.4 24-12.3 30-15.5 11.4-5.9 32.8-17 64-33 9.9-5.1 23-11.8 29-15 14.9-7.8 37.5-19.5 64-33 12.1-6.2 26.1-13.4 31-16 5-2.6 17.3-9 27.5-14.2 18.1-9.3 33.4-17.2 63.5-32.8 8.3-4.3 22.7-11.7 32-16.5 9.4-4.8 22.4-11.6 29-15 6.6-3.4 22.8-11.8 36-18.6 13.2-6.8 28.8-14.8 34.7-17.9 5.9-3 17.6-9 26-13.4 19.5-10 42.2-21.7 61.3-31.6 8.3-4.3 22.7-11.7 32-16.5 23.6-12.2 43.5-22.5 60-31 7.7-4 22.6-11.6 33-17 10.5-5.4 24.4-12.6 31-16 6.6-3.5 16.6-8.6 22.2-11.5 5.7-2.8 10.5-5.5 10.8-6 .3-.4-1-1.7-2.8-2.8-1.7-1.1-5.8-3.6-9.1-5.6-3.2-2-5.9-3.6-6-3.6-.2 0-5.8-3.2-12.7-7.2-6.8-3.9-14.6-8.4-17.4-9.9-2.7-1.5-8.8-4.8-13.5-7.4-12.6-6.8-48.6-24.4-63.5-31-7.1-3.1-14.6-6.4-16.5-7.2-1.9-.8-4.9-2.2-6.7-2.9-21.6-9.5-84.6-32-103.3-36.9-.8-.2-5.5-1.6-10.5-3-8.9-2.6-10.8-3.1-14.2-3.9-1-.2-8-2-15.7-4-12.1-3.2-21.5-5.3-52.6-12.1-3.6-.8-9.2-1.8-12.5-2.4-3.3-.6-7.1-1.2-8.5-1.5-8.3-1.6-34.9-5.7-42.5-6.6-4.9-.6-10.1-1.3-11.5-1.5-1.4-.2-5.4-.6-9-.9-3.6-.4-7.5-.8-8.6-1-1.2-.2-5.9-.7-10.6-1-4.7-.4-9.4-.8-10.5-1-1.1-.3-7.6-.7-14.4-1.1-6.8-.4-14.6-.9-17.4-1.1-6.2-.5-93.2-1.4-93.6-1z"/><path d="M2181 292.1c-32.2 16.7-50.5 26.2-67.2 34.8-9.5 4.9-23.6 12.1-31.3 16.1-15.4 8-36.7 18.9-66.5 34.2-10.7 5.5-23.1 12-27.5 14.3-4.4 2.3-18.3 9.5-31 16-12.6 6.5-27.9 14.3-34 17.5-6 3.2-19.5 10.1-30 15.5-39.1 20.1-54.5 28-96.5 49.8-10.2 5.3-24.9 12.9-32.7 16.9-7.9 4-21.1 10.8-29.5 15.2-8.4 4.3-24.5 12.6-35.8 18.3-11.3 5.8-25.4 13.2-31.5 16.3-6 3.2-18.9 9.8-28.5 14.8-9.6 4.9-24 12.3-32 16.4-8 4.2-22.6 11.7-32.5 16.8-9.9 5.1-24.3 12.5-32 16.5-7.7 4-21.6 11.2-31 16-16.2 8.3-27.7 14.3-59.7 30.9-7.9 4-22.8 11.7-33.3 17.1-10.4 5.4-24.8 12.8-32 16.5-7.1 3.7-22.4 11.6-34 17.5-11.5 5.9-26.2 13.5-32.5 16.8-6.3 3.2-19.8 10.2-30 15.4-10.2 5.3-24.3 12.6-31.5 16.3-7.1 3.7-20.9 10.8-30.5 15.7-9.6 5-25.1 13-34.5 17.8-9.3 4.8-24 12.4-32.5 16.8-8.5 4.3-21.8 11.2-29.5 15.2-7.7 4-22.5 11.6-33 17-26.5 13.6-47.9 24.7-62 32-12.1 6.3-30.4 15.8-64.5 33.3-10.2 5.2-24.3 12.5-31.5 16.2-29.8 15.4-55.3 28.5-59.4 30.6l-4.5 2.1 6.1 4.4c7 5.1 19.7 13.9 50.8 35.4 5.5 3.8 20.8 14.4 34 23.5 13.2 9.2 27.6 19.1 32 22.2 4.4 3 32.2 22.3 61.8 42.8l53.8 37.2-3.3 1.7c-1.8 1-18.1 9.3-36.3 18.6-18.1 9.2-42.4 21.6-54 27.5-11.5 5.9-33.6 17.2-49 25-15.4 7.8-38.3 19.5-51 26-12.6 6.5-36 18.4-52 26.5-31.3 15.9-61.6 31.4-98 50-36.6 18.7-84.5 43.1-90.8 46.3l-5.9 2.9 16.4 12.3c8.9 6.9 16.8 12.8 17.3 13.3.6.4 9.1 6.9 19 14.3 21.5 16.2 22.9 17.3 26.3 20 1.5 1.1 14 10.6 27.7 21 13.8 10.4 41.2 31.1 61 46.1 19.8 15 55.1 41.8 78.5 59.5 23.4 17.7 43.8 33.2 45.3 34.5l2.8 2.3-7.9 8.2c-4.4 4.6-9.7 10.1-11.8 12.4-2.2 2.3-10.4 11-18.4 19.4-8 8.4-15.4 16.3-16.5 17.4-1.1 1.2-6.5 6.9-12 12.6-10 10.5-37.1 39.1-45.4 47.9-2.4 2.5-8.4 8.9-13.4 14.1-18.4 19.3-38.4 40.4-61.2 64.5-14.8 15.6-35.1 36.9-40.8 42.9-3.8 3.9-11.9 12.5-18 19-6.2 6.5-13.2 14-15.7 16.6-2.5 2.5-11.2 11.8-19.5 20.5-8.2 8.7-16.1 17-17.5 18.5-9.2 9.7-38 40.1-45.6 48-5 5.2-12.5 13.1-16.7 17.5-4.1 4.4-9.7 10.3-12.3 13.1-2.7 2.8-10.8 11.4-18.1 19-7.3 7.7-15.4 16.2-18 19-2.6 2.7-12.4 13.1-21.8 22.9-9.3 9.9-20.9 22-25.6 27-4.8 4.9-9.7 10.2-11 11.6-1.3 1.5-9.4 10-17.9 18.9-8.5 9-17.3 18.2-19.5 20.5-2.2 2.4-10.6 11.2-18.6 19.6-8.1 8.5-16.3 17.2-18.4 19.4-2 2.2-11 11.6-19.9 21-8.8 9.3-20.1 21.2-25.1 26.4-4.9 5.3-12.9 13.6-17.6 18.6-4.8 4.9-10.3 10.7-12.2 12.8-2 2.2-10.3 10.9-18.4 19.4-8.1 8.6-15.7 16.6-16.8 17.8-1.1 1.2-4.5 4.8-7.5 7.9l-5.5 5.7 11.5-5.9c6.3-3.2 20.1-10.3 30.5-15.7 10.5-5.4 25.8-13.3 34-17.5 8.3-4.3 22.2-11.5 31-16 25.4-13.1 47.9-24.7 63-32.5 7.7-4 22.6-11.6 33-17 10.5-5.4 24.9-12.8 32-16.5 7.2-3.7 20.2-10.5 29-15s23.2-11.9 32-16.5c8.8-4.5 24.1-12.4 34-17.5 9.9-5.1 23-11.8 29-15 6.1-3.1 20.5-10.6 32-16.5 11.6-5.9 27.1-13.9 34.5-17.8 7.4-3.8 20.9-10.8 30-15.5 9.1-4.6 22.8-11.7 30.5-15.7 7.7-4 21.7-11.2 31-16 9.4-4.8 23.8-12.2 32-16.5 8.3-4.3 23.1-11.9 33-17 9.9-5.1 23.9-12.3 31-16 7.2-3.7 22-11.4 33-17s26.3-13.5 34-17.5c19.9-10.3 40.5-21 59-30.5 8.8-4.5 16.6-8.7 17.3-9.2.6-.6 1.2-.7 1.2-.3 0 .4.6.3 1.3-.3.7-.6 7.1-4.1 14.2-7.7 7.2-3.7 20.4-10.5 29.5-15.2 29.5-15.3 48.2-24.9 65.5-33.8 9.4-4.8 23.3-12 31-16 7.7-4 21.4-11.1 30.5-15.8 24.2-12.4 48.7-25 63.5-32.7 7.2-3.7 21.6-11.1 32-16.5 10.5-5.4 26-13.4 34.5-17.8 30.6-15.8 41.8-21.6 60.5-31.2 10.5-5.4 24.4-12.6 31-16 6.6-3.4 21-10.9 32-16.5s24.5-12.6 30-15.5c5.5-2.9 19.5-10.1 31-16 31.2-16 76.7-39.5 77.3-40 .1-.1-2.1-1.8-5-3.8-2.9-1.9-10.2-7-16.3-11.2-6-4.2-13.9-9.7-17.5-12.1-3.6-2.4-11.2-7.7-17-11.8-13.3-9.2-104.9-72.8-119.5-82.9-18.6-12.9-30.4-21-35.5-24.7-2.7-1.9-9.8-6.9-15.9-11s-11-7.7-11-8c0-.3 4.1-2.6 9.2-5.1 9-4.4 45.9-23.3 84.2-42.9 26.7-13.7 58-29.7 86-44 13.2-6.7 33.5-17.1 45-23 23.8-12.2 52.7-26.9 98.5-50.3 17.3-8.8 40.1-20.5 50.5-25.9 10.5-5.3 29.5-15.1 42.2-21.5 12.8-6.5 23.2-12.1 23-12.5-.2-.6-34.3-26.9-43.6-33.6-1.3-.9-3.5-2.6-5-3.8-1.4-1.1-7.3-5.6-13.1-10-5.8-4.3-10.9-8.2-11.5-8.7-.5-.4-15.6-11.9-33.5-25.4-17.9-13.5-43.3-32.8-56.5-42.8-13.2-10-30.5-23.1-38.5-29.1s-21-16-29-22c-8-6.1-25.1-19.1-38-28.8-12.9-9.8-23.6-18.1-23.7-18.4-.3-.7 2.4-3.6 29.7-32.3 8-8.4 15.6-16.5 17-17.9 4.4-4.7 36.2-38 45.6-47.9 5.1-5.3 10.6-11.2 12.4-13.1 1.7-1.9 6.6-7.1 10.8-11.5 20.1-21 41.3-43.3 43.7-46 1.5-1.7 7.3-7.7 12.9-13.5 8.6-9 17.5-18.4 47.1-49.5 2.2-2.3 9.9-10.5 17.2-18.1 16-16.9 21.3-22.5 40.2-42.4 8.2-8.5 16.3-17.1 18.1-19 1.8-1.9 10.5-11.1 19.4-20.4 8.8-9.3 17.2-18 18.5-19.5 2.6-2.9 30.2-32 45.2-47.6 5.2-5.5 13.6-14.3 18.5-19.5 5-5.2 13.2-13.8 18.1-19 5-5.2 10.5-11.1 12.3-13 1.8-1.9 10.4-10.9 19-20 8.7-9.1 17.5-18.3 19.5-20.5 2.1-2.2 11.3-11.8 20.4-21.4 9.1-9.5 17.3-18.2 18.2-19.2.8-1 8.7-9.3 17.6-18.6 8.8-9.2 17.7-18.5 19.7-20.7 2-2.1 11.1-11.7 20.3-21.4 9.3-9.6 17.5-18.2 18.3-19.2.8-.9 9-9.6 18.1-19.1 9.2-9.6 18.1-19 19.9-20.9 1.8-1.9 10.3-10.9 18.9-19.9 8.6-9.1 16.7-17.7 18.1-19.1 1.4-1.5 3.8-4.1 5.4-5.9 1.7-1.7 2.8-3.1 2.5-3.1-.2.1-7.4 3.7-15.9 8.1z"/><path d="M2188.5 474.6c-6 6.5-13.9 14.8-17.5 18.5-3.6 3.7-12.1 12.7-19 20-6.9 7.3-14.7 15.5-17.3 18.1-2.7 2.7-4.7 5.3-4.5 5.8.3.9 5.3 7.1 11.3 14.1 2.2 2.5 6.2 7.5 9 11 2.7 3.5 5.6 7.1 6.4 7.9 2.4 2.4 33.1 43.8 39 52.5 3 4.4 5.8 8.4 6.3 9 2 2.5 7.8 11.8 7.8 12.5 0 .5.3 1 .8 1.2.4.1 4.8 6.6 9.7 14.3 4.9 7.7 9.3 14.1 9.7 14.3.5.2.8.8.8 1.3s3.2 6.1 7 12.5c3.9 6.4 7 11.8 7 12 0 .2 2.3 4.1 5 8.5 2.8 4.4 5 8.2 5 8.3 0 .2 3.1 6 6.9 12.9 20.5 37.6 35.8 70 58.1 123.2 1.2 2.9 3.5 8.9 3.6 9.5 0 .3.3 1.2.7 2 12.4 30.7 30.3 87.3 40.6 128.5 6 23.9 6.8 27.7 11.7 51.5 1.4 6.9 2.8 13.4 3 14.5.5 2.5 5.5 31.1 5.9 34.5.8 5.2 2.5 16.6 2.9 19 .3 1.4 1 7.4 1.6 13.5.6 6 1.3 12.1 1.5 13.5.5 3.4 1.7 14.6 2.9 26.5.3 2.7.8 9.3 1.2 14.5.3 5.2.8 11.1.9 13 2.6 31.5 2.6 116.4 0 146-.2 2.5-.6 8.8-1 14.1-.3 5.3-.7 10.5-.9 11.6-.3 1.2-.7 5.9-1.1 10.6-.3 4.7-.7 9.4-.9 10.4-.2 1-.7 5-1.1 8.8-1 10.6-1.4 13.6-5 38.5-1.4 9.6-2.7 18.5-2.9 19.6-.2 1.2-.7 3.9-1.1 6-3.2 20.6-9.9 52.1-16.6 78.9-2.8 11-5.2 20.7-5.4 21.5-.9 3.3-6.9 24.2-10.1 35-4 13.4-18 55.1-19.9 59.5-.7 1.6-3.6 9.1-6.3 16.5-2.8 7.4-6.7 17.3-8.7 22-2 4.7-3.8 8.9-3.9 9.5-.1.5-1 2.6-1.8 4.5-.9 1.9-3.1 7.1-5.1 11.5-7.6 17.5-14.4 32-22.6 48.5-7.1 14.1-18.4 36-21.8 42-2.5 4.5-7.9 14.3-11.1 20-1.4 2.5-2.8 5-3.3 5.6-1.1 1.4-16.9 27.7-16.9 28.1 0 .2-.9 1.6-1.9 3.1-1 1.5-6.7 10.1-12.6 19.2-11.6 17.6-25.5 37.6-36.9 53-10.7 14.4-28.6 37.4-30.2 38.6-.8.6-1.4 1.4-1.4 1.8 0 .6-3.8 5.2-7.7 9.3-1.3 1.3-2.3 2.6-2.3 2.8 0 .3-.8 1.3-1.7 2.4-1 1-3.6 4-5.8 6.7-2.2 2.6-5.8 6.9-8.1 9.4-2.2 2.5-8.3 9.2-13.5 15-29.7 33.2-75.7 78-105.3 102.5-2.7 2.2-5.6 4.7-6.5 5.6-5.7 5.6-55.4 43.9-73.1 56.3-5.2 3.6-9.9 6.9-10.5 7.4-5.5 4.4-55.2 36.1-67 42.7-2.7 1.6-5.7 3.4-6.5 4-.8.7-4 2.6-7 4.2s-9.1 5-13.5 7.5c-26.9 15.2-67.4 35.3-96.5 47.8-4.1 1.8-8.8 3.8-10.5 4.6-1.6.7-8.1 3.4-14.3 5.9-6.1 2.5-12.4 5.1-14 5.7-1.5.6-2.9 1.2-3.2 1.3-.3.1-1.2.4-2 .8-9.4 3.7-56.7 20.5-60 21.2-.8.2-3.5 1-6 1.8-8.6 2.9-36.3 11.1-48 14.2-16.1 4.2-43.5 10.8-54.5 13.1-1.1.2-3.1.6-4.5.9-1.4.3-3.6.7-5 1-1.4.3-3.6.7-5 1-8.6 1.8-38.1 7.3-43 8-2.5.3-5.6.8-7 1-4.7.9-8.5 1.4-14 2-3 .3-6.2.8-7 1-1.4.4-9.1 1.4-15 2-1.4.1-4.7.5-7.5.9-2.7.3-7.5.8-10.5 1.1-3 .3-7.1.7-9 1-1.9.2-7.3.7-12 1-4.7.3-10.8.8-13.7 1.1-5.9.5-13.5 1-34.8 2.1-28.2 1.4-93 .8-119-1.2-2.2-.1-8.9-.6-15-1-6-.4-11.7-.9-12.5-1-.8-.1-5.8-.6-11-.9-5.2-.4-12.6-1.1-16.5-1.6-3.8-.5-9-1.2-11.5-1.4-8.9-1-21.4-2.7-23-3.1-.3 0-3-.5-6-.9s-6.2-.9-7-1.1c-.8-.2-6.3-1-12.2-1.9-15-2.3-44.8-8-60.8-11.7-21-4.8-64.7-16.1-72-18.6-2.5-.8-5.2-1.6-6.1-1.8-3.2-.7-24.1-7.1-29.4-9.1-1.1-.4-2.4-.8-3-1-1.5-.3-24.7-8.4-26.5-9.1-.8-.3-1.7-.7-2-.8-.3-.1-1.2-.5-2-.8-2.4-1-13.5-5.1-14-5.2-1.1-.2-18.6-7.1-33-13.2-19.4-8.1-23.9-10.1-44-19.4-10.7-4.9-56-27.6-57.5-28.8-.5-.5-4.1-2.5-8-4.6-12.1-6.5-22.5-12.5-38-21.8l-14.9-9-7.1 3.7c-6.8 3.6-37.4 19.4-76 39.2-10.4 5.3-19.2 9.9-19.5 10.1-.3.3.3.9 1.2 1.4.9.5 2.3 1.5 3 2.3.7.7 1.8 1.5 2.3 1.7.6.2 8.2 5.2 17 11s17.1 11.2 18.5 11.9c1.4.7 2.7 1.6 3 2 .5.6 20.2 12.8 28.4 17.5 1.9 1.1 7.9 4.5 13.3 7.7 5.4 3.1 12.5 7.1 15.8 8.8 3.3 1.8 6.5 3.6 7 4 5.4 4.1 64.6 33.2 92 45.3 9.4 4.1 19.2 8.4 21.7 9.6 2.6 1.1 5.2 2.1 5.8 2.1.5 0 1.8.4 2.8.9 3.5 1.9 13.3 6.1 14.1 6.1.4 0 3.4 1.1 6.7 2.4 6.9 2.7 9.2 3.5 9.9 3.6.3 0 1.8.6 3.3 1.4 1.5.8 5.7 2.4 9.2 3.5 3.6 1.2 7.2 2.5 8 2.9 2.9 1.6 64.1 21.5 73 23.7.8.3 4.2 1.2 7.5 2.1 3.3.9 6.5 1.7 7 1.9.6.1 1.7.5 2.5.8 1.2.5 18.6 5 24 6.2.8.2 8.9 2.2 18 4.4s24.4 5.6 34 7.5c9.6 1.9 18.9 3.8 20.5 4.1 2.9.6 28.6 5.2 33.5 6 12.6 2 34 5 43.5 6 3.9.4 7.7.9 8.5 1 .8.2 4.4.6 8 1 3.6.3 7.9.8 9.5 1 5.3.7 22.5 2.2 33.5 3 4.1.3 10.2.8 13.5 1 32.2 2.5 138.4 2.5 153.5 0 1.4-.2 7.6-.6 13.8-.9 6.2-.4 12.7-.8 14.5-1.1 1.8-.2 6.6-.7 10.7-1 4.1-.4 9.1-.8 11-1 1.9-.2 5.8-.6 8.5-.9 2.8-.4 7-.9 9.4-1.1 2.5-.3 7.9-.9 12-1.5 4.2-.5 9.9-1.2 12.6-1.5 2.8-.4 7.7-1 11-1.5s7.8-1.2 10-1.5c2.2-.4 5.1-.8 6.5-1.1 1.4-.2 5.2-.9 8.5-1.4 7.4-1.2 9.9-1.7 20-3.6 4.4-.8 9.6-1.7 11.5-2 2.8-.5 14.2-2.8 18.5-3.8 3.2-.8 7.3-1.6 9.5-2 7.1-1.2 46.6-11 65-16.2 3-.8 6.2-1.7 7-1.9 11.3-2.7 78.6-24.6 87.5-28.5 1.1-.5 5.8-2.3 10.5-4 11.7-4.4 42.3-16.7 48.8-19.6 2.9-1.3 5.5-2.4 5.8-2.4.3 0 2.9-1.1 5.7-2.4 2.9-1.3 7.9-3.7 11.2-5.2 3.3-1.5 6.2-2.8 6.5-2.9 3.9-.7 73.9-36.5 89-45.5.8-.5 4.2-2.3 7.5-4.1 3.3-1.7 6.7-3.7 7.5-4.4.8-.6 5.3-3.3 10-6 13-7.4 49.8-30.4 54.5-34.2.6-.4 3-2.1 5.5-3.7 3.9-2.5 39.7-27.6 42.5-29.8.6-.5 5.5-4.2 11-8.3 5.5-4.1 10.5-7.8 11-8.2.6-.5 3-2.4 5.5-4.3s6.1-4.8 8-6.5c2-1.6 5.4-4.4 7.5-6.2 7.7-6.1 11-8.8 13.5-10.9 2.2-2 12.4-10.5 18.9-15.9 1.3-1.1 4.9-4.3 8-7.1 3.1-2.8 7.4-6.6 9.6-8.5 22-18.7 84.5-81.7 100.1-100.9 1.6-1.9 3.8-4.4 4.9-5.6 2.9-3.1 12.7-14.3 15-17.3 1.1-1.4 3.2-4 4.7-5.6 1.4-1.7 6.1-7.3 10.3-12.5 4.2-5.2 8.1-10.2 8.8-11 .7-.8 4.1-5.3 7.7-10 3.6-4.6 7.1-9.1 7.7-10 4-4.9 20.4-27.5 28.6-39.5 5.3-7.7 10.1-14.7 10.7-15.5 4.5-6.5 16-24.4 25.1-39 6-9.6 11.3-18 11.9-18.7.5-.7 1-1.5 1-1.8 0-.3 2.4-4.5 5.2-9.3 5.7-9.3 7.9-13.2 9.9-17.2.8-1.4 2.3-4.1 3.5-6 4.6-7.7 33.9-65.1 38.9-76.5 1-2.2 3.5-7.7 5.6-12.3 2.2-4.5 3.9-8.4 3.9-8.7 0-.2 1.4-3.5 3.1-7.2 1.7-3.8 4.7-10.5 6.5-15.1 1.9-4.5 4-9.5 4.6-11 .6-1.5 1.2-2.9 1.3-3.2.5-1.4 1.8-4.7 2.5-6.5 3.8-8.8 11.3-28.6 16.8-44.5 5.8-16.7 15.2-44.6 15.8-46.9.2-.9 3.1-11.1 6.4-22.6 3.3-11.6 6.2-21.9 6.5-23 .3-1.1 1.9-7.2 3.5-13.5 3-11.3 9.8-40.1 10.6-45 .3-1.4.7-3.3 1-4.2.3-1 .7-3 1-4.5.2-1.6 1.8-9.6 3.4-17.8 2.6-13.3 4.5-23.9 5.5-31.5.2-1.4.8-5.4 1.5-9 .7-3.6 1.4-8.1 1.6-10 .3-1.9 1.1-7.6 1.9-12.5 1.2-8.3 1.7-11.5 3.1-24.5.3-2.5.9-7.9 1.4-12 .6-4.1 1.2-11.1 1.6-15.5.3-4.4.7-9.6.9-11.5.2-1.9.7-7.6 1-12.5.4-5 .8-11 1-13.5 1.3-15.2 2-44.6 2-79.5 0-41.9-.6-60.4-3-91-.4-4.4-.8-10.5-1-13.5-.6-7.7-1.5-17.9-2-21.5-.2-1.7-.7-6.2-1-10-.6-6.5-1.1-11-2-16.1-.2-1.2-.6-4.8-1-8-.4-3.3-.9-7-1.1-8.4-.2-1.4-.7-4.8-1-7.5-.3-2.8-.7-5.2-.9-5.5-.2-.3-.6-3.4-1-6.9-.4-3.4-.9-7.2-1.1-8.4-.6-3-2.3-12.4-3-16.7-.2-1.9-.7-4.6-1-6-.2-1.4-.6-3.4-.8-4.5-.2-1.1-1.1-5.4-2-9.5-.8-4.1-1.8-9.1-2.1-11-.3-1.9-1.2-6.2-2-9.5s-1.7-7.6-2.1-9.5c-.4-1.9-.9-4-1-4.5-.2-.6-.6-2.4-.9-4-.3-1.7-1.8-7.7-3.1-13.5-1.4-5.8-2.7-11.2-2.9-12-1-4.7-7.8-29.8-10-37-1.4-4.7-2.8-9.5-3.1-10.8-.2-1.3-1.1-4.2-1.8-6.5-.8-2.3-3.7-11.6-6.6-20.7-5.6-17.7-14.5-44.2-16-47.5-.5-1.1-2.9-7.4-5.4-14-4.9-13.1-6.9-18.2-9.3-23.4-.8-1.8-1.6-3.9-1.7-4.5-.1-.6-1-2.9-2-5.1-1-2.2-3.1-7.3-4.7-11.2-1.6-4-3.3-8.1-3.8-9-.5-1-1.6-3.4-2.4-5.3-.8-1.9-2.9-6.5-4.6-10.2-1.7-3.7-3.1-7-3.1-7.3 0-.9-26.4-54-32.8-66-3.2-6.1-8.2-15.2-11-20.3-2.9-5-5.2-9.5-5.2-9.8 0-.3-.8-1.8-1.9-3.2-1-1.5-2.9-4.5-4.2-6.8-2-3.4-12.3-20.5-16.2-26.9-.7-1.1-2.4-3.9-3.9-6.2-1.6-2.3-2.8-4.4-2.8-4.6 0-.8-26.8-40.8-34.8-52.2-3.9-5.5-7.7-10.8-8.4-11.9-.7-1-1.8-2.4-2.4-3-.6-.6-1.9-2.5-2.9-4.1-1.1-1.7-2.5-3.7-3.2-4.5-.8-.8-3.7-4.7-6.5-8.5-2.9-3.9-5.6-7.5-6-8-8.1-10.3-26.3-33.1-26.7-33.5-.4-.3-2.6-3-5.1-6-5.6-6.9-8.7-10.5-12.5-14.7l-3-3.4-11 11.7z"/><path d="M2074.6 622.2c-3.8 4-10.5 11.1-15 15.8-10.9 11.5-38.4 40.6-42.9 45.3-2 2.2-10.3 10.9-18.4 19.4-8.1 8.5-16.6 17.4-18.7 19.7-2.1 2.2-10.5 11.1-18.6 19.6-8.1 8.5-16.2 17.1-18 19-1.8 1.9-10.2 10.8-18.7 19.7-8.5 8.9-17.1 17.9-19 20-2 2.1-10.7 11.2-19.3 20.3-8.6 9.1-17.4 18.3-19.5 20.5-2 2.2-10.1 10.7-18 19-7.8 8.2-15.8 16.6-17.6 18.6-1.9 2-10.1 10.7-18.4 19.4-8.2 8.7-16.6 17.4-18.5 19.4-1.9 2.1-10.8 11.4-19.6 20.7-8.9 9.3-17.8 18.7-19.9 20.9-2 2.2-10.3 10.9-18.3 19.4-8.1 8.4-14.7 15.9-14.7 16.6 0 .7 12.4 10.7 27.5 22.1 15.1 11.4 33.4 25.2 40.5 30.7 7.2 5.4 14.3 10.8 15.9 12 6.2 4.6 18.1 13.7 19.1 14.4.9.8 22.3 17 74 56.1 8.3 6.2 15.7 11.8 16.5 12.5.8.7 10.7 8.2 22 16.6 11.3 8.5 27.7 20.9 36.5 27.6 8.8 6.7 23.4 17.7 32.5 24.6 9.1 6.9 22.1 16.7 29 21.9 6.9 5.2 13.7 10.4 15.3 11.6l2.7 2.3-16.2 8.2c-9 4.5-25.3 12.8-36.3 18.4-11 5.6-37.1 18.9-58 29.5-20.9 10.6-46.5 23.7-57 29-19.1 9.8-46.9 24-94.5 48.3-14 7.1-34.9 17.8-46.5 23.7-11.5 5.9-32.5 16.6-46.5 23.7-14 7.2-37.2 19-51.5 26.3-14.3 7.3-26.1 13.4-26.3 13.5-.2.2 3 2.6 7 5.4 4 2.7 7.8 5.4 8.3 5.8.6.5 6.2 4.3 12.5 8.6s17.1 11.7 24 16.4c6.9 4.7 15.9 10.8 20 13.7 4.1 2.8 7.7 5.3 8 5.6.3.3 2.5 1.9 5 3.5 3.6 2.4 37.2 25.7 89.5 62 47.1 32.6 61.5 42.8 62 43.5.3.4-2.8 2.4-6.8 4.4-3.9 1.9-14.8 7.5-24.2 12.4-9.3 4.8-26.9 13.9-39 20.1-27.9 14.4-51.7 26.7-67 34.6-6.6 3.4-19.6 10.2-29 15-36.5 18.8-52.5 27-65 33.5-7.1 3.7-21.1 10.9-31 16-9.9 5.1-24.3 12.5-32 16.5-7.7 4-21.6 11.2-31 16-9.3 4.8-22.8 11.8-30 15.5-7.1 3.7-22 11.3-33 17-22.1 11.3-42.7 22-61 31.5-6.6 3.4-21 10.8-32 16.5-11 5.6-26.3 13.5-34 17.5-34 17.6-46.1 23.8-63 32.5-9.9 5.1-23.8 12.3-31 16-7.1 3.7-22 11.4-33 17s-24.9 12.8-31 16c-6 3.1-19.1 9.9-29 15-9.9 5.1-24.3 12.5-32 16.5-7.7 4-22.5 11.6-33 17-25.8 13.3-47.8 24.6-61 31.5-6 3.2-20 10.4-31 16-11 5.7-26.3 13.5-34 17.5-7.7 4-21.6 11.2-31 16-48.1 24.8-49.3 25.4-93 48-7.1 3.7-21.5 11.1-31.8 16.4-10.4 5.3-18.9 10.1-18.9 10.6 0 1.9 53.8 28.9 81.6 41 26.4 11.5 65.6 27 73.6 29.1.8.2 6 1.9 11.5 3.8 44.6 15.3 106.5 31.3 147 38 1.7.3 9.8 1.6 18 3 14.3 2.4 18.3 3 27.1 4.2 11.1 1.5 15.8 2 24.9 2.9 3.3.3 7.1.8 8.5 1 3.1.4 25.2 2.4 34 3 46 3 122 2.5 156.5-1.1 3.3-.3 7.6-.7 9.5-.9 4.9-.3 18-1.6 21-2 1.4-.2 5.2-.6 8.5-1 5.9-.5 13.4-1.5 16.7-2.1.9-.1 3.8-.5 6.5-.9 2.6-.4 10.2-1.6 16.8-2.6 6.6-1.1 13.4-2.2 15-2.5 1.7-.2 4.1-.6 5.5-.9 1.4-.3 4.1-.7 6-1 1.9-.4 10.8-2.2 19.7-4 9-1.9 17.3-3.7 18.5-3.9 1.3-.2 7.9-1.9 14.8-3.6 6.9-1.7 13.2-3.3 14-3.5 13.3-3.1 45.5-12.4 63.6-18.4 26.5-8.7 74.3-26.9 90.2-34.2 3.5-1.6 6.5-2.9 6.7-2.9.2 0 4.3-1.9 9.2-4.1 4.8-2.3 12.2-5.7 16.3-7.6 4.1-1.9 13.6-6.5 21-10.2 29.1-14.6 54.1-28.6 87-49.1 6.3-3.9 34.7-22.9 43-28.8 23.7-16.6 26-18.3 53-39.7 16.7-13.2 29.3-24.1 54.5-46.8 12.7-11.5 49.4-48.2 60.5-60.6 4.7-5.2 9.7-10.7 11.1-12.3 7.6-8.1 22.4-25.7 32.4-38.3 4.4-5.5 8.3-10.2 8.6-10.5 1.3-1.2 28.2-37.5 36.6-49.5 20.2-29.1 38.4-58.3 54.7-88 4.3-7.7 8.4-15.1 9.2-16.5 4.6-7.9 25.6-51 31.7-65 1-2.5 2.9-6.8 4.2-9.5 4.2-9 17.1-41.7 22.5-56.5 2.8-8 5.4-15.2 5.7-16 .3-.8.7-2 .9-2.5.1-.6 2.5-7.8 5.2-16 9-27.4 20.3-67.9 24.7-88.9.3-1.1 1.6-7.2 3-13.5 3.9-18 8.4-42.7 10-54.1.3-2.5.8-5.2 1-6 .2-.8.7-3.5 1-6 .9-7 1.8-13.5 2.9-20.5.2-1.7.8-6.4 1.1-10.5.4-4.1.9-8.2 1-9.1.2-.8.6-5.3 1-10 .4-4.6.8-9.1 1-9.9.2-.8.6-6.5 1-12.5.4-6.1.9-12.8 1.1-15 3-37.5 2-107-2.1-155-.1-1.7-.5-6.8-.9-11.5s-.9-9.6-1.1-11c-.2-1.4-1.3-9.9-2.4-19-1.2-9.1-2.3-17.4-2.5-18.5-.2-1.1-.7-4.3-1-7-.6-4.5-5.9-35.3-7.1-41.4-23.7-119.4-65.3-228.1-127-332.1-7-11.8-9-14.9-24-38-15.8-24.4-36.6-52.9-55.9-77-12.2-15.2-13.8-17-14.6-17-.4 0-3.7 3.3-7.4 7.2z"/></svg>